<svg width="802" height="490" viewBox="0 0 802 490" fill="none" xmlns="http://www.w3.org/2000/svg">
<rect width="802" height="490" fill="#A17EE1"/>
<path d="M364.4 128.1L440.957 260.7H287.843L364.4 128.1Z" fill="#822E77"/>
<path d="M454.622 155L515.868 261.08H393.377L454.622 155Z" fill="#822E77"/>
<circle cx="454.902" cy="98" r="32" fill="#822E77"/>
<path d="M187.5 416.5H70.5L70 249.5L112.5 203.5L166 224L204.5 257.5L244 349L298 333L319 376.5L230 416.5H211L130 288L125 326L187.5 416.5Z" fill="#822E77"/>
<path d="M240 162.5L221 163.5C221 203.5 200 213 181 207L139 192.5C126 186.5 99 174.6 99 129C99 83.4 140.333 70.3333 161 69.5C225 69.5 237 148 240 162.5Z" fill="#822E77"/>
<path d="M337 368L314 326.5L344 301.5H399V318H361V332H399L359.5 360.5L337 368Z" fill="#822E77"/>
<path d="M614.5 416.5H731.5L732 249.5L689.5 203.5L636 224L597.5 257.5L558 349L504 333L483 376.5L572 416.5H591L672 288L677 326L614.5 416.5Z" fill="#822E77"/>
<path d="M562 162.5L581 163.5C581 203.5 602 213 621 207L663 192.5C676 186.5 703 174.6 703 129C703 83.4 661.667 70.3333 641 69.5C577 69.5 565 148 562 162.5Z" fill="#822E77"/>
<path d="M465 368L488 326.5L458 301.5H403V318H441V332H403L442.5 360.5L465 368Z" fill="#822E77"/>
</svg>
